<svg width="38" height="43" viewBox="0 0 38 43" fill="none" xmlns="http://www.w3.org/2000/svg">
<mask id="path-1-outside-1_108_143" maskUnits="userSpaceOnUse" x="-2" y="16" width="27" height="27" fill="black">
<rect fill="white" x="-2" y="16" width="27" height="27"/>
<path d="M11.3938 35.4538L17.7277 17.2308H22.6108L14.0123 42H8.81077L0.212308 17.2308H5.09538L11.3938 35.4538Z"/>
</mask>
<path d="M11.3938 35.4538L17.7277 17.2308H22.6108L14.0123 42H8.81077L0.212308 17.2308H5.09538L11.3938 35.4538Z" fill="#DEDEDE"/>
<path d="M11.3938 35.4538L10.4487 35.7805L11.3912 38.5074L12.3384 35.7822L11.3938 35.4538ZM17.7277 17.2308V16.2308H17.0166L16.7831 16.9025L17.7277 17.2308ZM22.6108 17.2308L23.5555 17.5587L24.0165 16.2308H22.6108V17.2308ZM14.0123 42V43H14.7237L14.957 42.3279L14.0123 42ZM8.81077 42L7.86607 42.3279L8.09937 43H8.81077V42ZM0.212308 17.2308V16.2308H-1.19338L-0.732389 17.5587L0.212308 17.2308ZM5.09538 17.2308L6.04052 16.9041L5.8078 16.2308H5.09538V17.2308ZM12.3384 35.7822L18.6723 17.5591L16.7831 16.9025L10.4493 35.1255L12.3384 35.7822ZM17.7277 18.2308H22.6108V16.2308H17.7277V18.2308ZM21.6661 16.9028L13.0676 41.6721L14.957 42.3279L23.5555 17.5587L21.6661 16.9028ZM14.0123 41H8.81077V43H14.0123V41ZM9.75547 41.6721L1.157 16.9028L-0.732389 17.5587L7.86607 42.3279L9.75547 41.6721ZM0.212308 18.2308H5.09538V16.2308H0.212308V18.2308ZM4.15025 17.5574L10.4487 35.7805L12.339 35.1272L6.04052 16.9041L4.15025 17.5574Z" fill="black" mask="url(#path-1-outside-1_108_143)"/>
<mask id="path-3-outside-2_108_143" maskUnits="userSpaceOnUse" x="3.99994" y="-0.153811" width="27" height="27" fill="black">
<rect fill="white" x="3.99994" y="-0.153811" width="27" height="27"/>
<path d="M17.6061 7.39234L11.2722 25.6154L6.38917 25.6154L14.9876 0.84619L20.1892 0.846191L28.7876 25.6154L23.9046 25.6154L17.6061 7.39234Z"/>
</mask>
<path d="M17.6061 7.39234L11.2722 25.6154L6.38917 25.6154L14.9876 0.84619L20.1892 0.846191L28.7876 25.6154L23.9046 25.6154L17.6061 7.39234Z" fill="#DEDEDE"/>
<path d="M17.6061 7.39234L18.5512 7.06567L17.6087 4.3388L16.6615 7.06404L17.6061 7.39234ZM11.2722 25.6154L11.2722 26.6154L11.9834 26.6154L12.2168 25.9437L11.2722 25.6154ZM6.38917 25.6154L5.44448 25.2875L4.98349 26.6154L6.38917 26.6154L6.38917 25.6154ZM14.9876 0.84619L14.9876 -0.15381L14.2762 -0.15381L14.0429 0.518244L14.9876 0.84619ZM20.1892 0.846191L21.1339 0.518245L20.9006 -0.153809L20.1892 -0.153809L20.1892 0.846191ZM28.7876 25.6154L28.7876 26.6154L30.1933 26.6154L29.7323 25.2875L28.7876 25.6154ZM23.9046 25.6154L22.9594 25.9421L23.1921 26.6154L23.9046 26.6154L23.9046 25.6154ZM16.6615 7.06404L10.3277 25.2871L12.2168 25.9437L18.5507 7.72065L16.6615 7.06404ZM11.2722 24.6154L6.38917 24.6154L6.38917 26.6154L11.2722 26.6154L11.2722 24.6154ZM7.33387 25.9434L15.9323 1.17414L14.0429 0.518244L5.44448 25.2875L7.33387 25.9434ZM14.9876 1.84619L20.1892 1.84619L20.1892 -0.153809L14.9876 -0.15381L14.9876 1.84619ZM19.2445 1.17414L27.8429 25.9434L29.7323 25.2875L21.1339 0.518245L19.2445 1.17414ZM28.7876 24.6154L23.9046 24.6154L23.9046 26.6154L28.7876 26.6154L28.7876 24.6154ZM24.8497 25.2887L18.5512 7.06567L16.661 7.71901L22.9594 25.9421L24.8497 25.2887Z" fill="black" mask="url(#path-3-outside-2_108_143)"/>
<g clip-path="url(#clip0_108_143)">
<path d="M20.3938 36.4537L26.7277 18.2307H31.6108L23.0123 42.9999H17.8107L9.21228 18.2307H14.0954L20.3938 36.4537Z" fill="#DEDEDE"/>
<path d="M26.6061 8.39234L20.2722 26.6154H15.3892L23.9876 1.84619L29.1892 1.84619L37.7876 26.6154H32.9046L26.6061 8.39234Z" fill="#DEDEDE"/>
</g>
<defs>
<clipPath id="clip0_108_143">
<rect width="29" height="42" fill="white" transform="translate(9 1)"/>
</clipPath>
</defs>
</svg>
